<svg width="16" height="16" viewBox="0 0 16 16" fill="none" xmlns="http://www.w3.org/2000/svg">
<g clip-path="url(#clip0_1_7)">
<path d="M14.12 10.163L15.835 11.021C16.055 11.131 16.055 11.445 15.835 11.555L8.26699 15.34C8.18402 15.3812 8.09263 15.4027 7.99999 15.4027C7.90734 15.4027 7.81596 15.3812 7.73299 15.34L0.164989 11.555C0.11555 11.5301 0.0740012 11.4919 0.044971 11.4448C0.0159408 11.3976 0.000569342 11.3434 0.000569342 11.288C0.000569342 11.2326 0.0159408 11.1783 0.044971 11.1312C0.0740012 11.0841 0.11555 11.0459 0.164989 11.021L1.88099 10.163L7.19799 12.822C7.70299 13.074 8.29799 13.074 8.80199 12.822L14.119 10.162L14.12 10.163ZM7.73299 0.0629868C7.81596 0.0217595 7.90734 0.000305176 7.99999 0.000305176C8.09263 0.000305176 8.18402 0.0217595 8.26699 0.0629868L15.835 3.84699C15.8844 3.87207 15.9259 3.91034 15.9549 3.95755C15.9838 4.00477 15.9992 4.05909 15.9992 4.11449C15.9992 4.16989 15.9838 4.22421 15.9549 4.27142C15.9259 4.31864 15.8844 4.35691 15.835 4.38199L8.26699 8.16499C8.18402 8.20621 8.09263 8.22767 7.99999 8.22767C7.90734 8.22767 7.81596 8.20621 7.73299 8.16499L0.164989 4.38199C0.115288 4.35717 0.0734848 4.31899 0.0442671 4.27174C0.0150495 4.22449 -0.000427246 4.17004 -0.000427246 4.11449C-0.000427246 4.05893 0.0150495 4.00448 0.0442671 3.95723C0.0734848 3.90998 0.115288 3.87181 0.164989 3.84699L7.73299 0.0629868Z" fill="white"/>
<path d="M14.12 6.57599L15.835 7.43399C16.055 7.54399 16.055 7.85799 15.835 7.96799L8.26703 11.752C8.18406 11.7932 8.09268 11.8147 8.00003 11.8147C7.90738 11.8147 7.816 11.7932 7.73303 11.752L0.16503 7.96799C0.115591 7.94307 0.0740422 7.90491 0.045012 7.85777C0.0159818 7.81063 0.000610352 7.75635 0.000610352 7.70099C0.000610352 7.64563 0.0159818 7.59135 0.045012 7.54421C0.0740422 7.49706 0.115591 7.45891 0.16503 7.43399L1.88103 6.57599L7.19803 9.23499C7.70303 9.48699 8.29803 9.48699 8.80203 9.23499L14.12 6.57599Z" fill="white"/>
</g>
<defs>
<clipPath id="clip0_1_7">
<rect width="16" height="16" fill="white"/>
</clipPath>
</defs>
</svg>
